# xmcd
# 
# Track frame offsets:
#     183
#     17943
#     33708
#     45313
#     60733
#     72488
#     88905
#     101473
#     114523
#     125248
#     140783
#     155758
#     167433
#     182873
#     195453
#     208838
#     222743
#     238250
#     252938
#     265513
# 
# Disc length: 3769
# 
# Revision: 5
# Processed by: cddbd v1.5.2PL0 Copyright (c) Steve Scherf et al.
# Submitted via: fre:ac v1.0.31
# 
DISCID=390eb714
DTITLE=Pierre Perret - Intégrale Volume 1
DYEAR=1994
DGENRE=Country
TTITLE0=Le Zizi
TTITLE1=Les Postières
TTITLE2=Si J't'envoie des Fraises
TTITLE3=Les Baisers
TTITLE4=Le Petit Potier
TTITLE5=C'est Bon Pour la Santé
TTITLE6=Bernard Pivot
TTITLE7=Les Seins
TTITLE8=Qu'elle Était Jolie Qu'elle Était Belle
TTITLE9=C'est au Mois D'août
TTITLE10=Le Plombier
TTITLE11=Docteur
TTITLE12=Les Majorettes
TTITLE13=Le Gros Paysan
TTITLE14=Les Voyages Organisés
TTITLE15=Le Centenaire
TTITLE16=Le Gros Béguin
TTITLE17=C'est Bon C'est Bon
TTITLE18=Qu'est-ce Qu'elle Est Belle
TTITLE19=Les Jolies Colonies de Vacances
EXTD=Arpa: Omar Vera\nGuitarra: Digno Acuña, Dionisio Villamayor, Alberto Casanova\nQuatro Y Bajo: Dionisio Villamayor\nEstudio: Papi Galan, Paraguay 1991\nProducción: Omar Vera
EXTT0=Mark Padmore, Tenor
EXTT1=RCA Victor Symphony Orchestra\nLeonard Bernstein
EXTT2=Peter Kooy, Bass
EXTT3=Leonard Bernstein, piano
EXTT4=Leonard Bernstein, piano
EXTT5=Marc Grauwels (flute) - Symphony Orchestra of the Belgian Radio
EXTT6=Marc Grauwels (piccolo), Symphony Orchestra of the Belgian Radio
EXTT7=Marc Grauwels (flute) - Marie-Noelle de Callataÿ (soprano) - Waterloo Chamber Orchestra
EXTT8=Marc Grauwels (flute) - Walloon Chamber Orchestra
EXTT9=Marc Grauwels (flute) - Alain De Rijckere (bassoon) - Walloon Chamber Orchestra
EXTT10=Marc Grauwels (flute) - Alain De Rijckere (bassoon) - Walloon Chamber Orchestra
EXTT11=1 Andante/Allegro
EXTT12=2 Larghetto
EXTT13=All Star Tribute to the Father of Bluegrass Music
EXTT14=All Star Tribute to the Father of Bluegrass Music
EXTT15=All Star Tribute to the Father of Bluegrass Music
EXTT16=All Star Tribute to the Father of Bluegrass Music
EXTT17=All Star Tribute to the Father of Bluegrass Music
EXTT18=All Star Tribute to the Father of Bluegrass Music
EXTT19=All Star Tribute to the Father of Bluegrass Music
PLAYORDER=
